<?xml version="1.0" encoding="UTF-8"?>
<svg id="Layer_2" data-name="Layer 2" xmlns="http://www.w3.org/2000/svg" viewBox="0 0 364.5 131.69">
  <defs>
    <style>
      .cls-1 {
        fill: #28a0ae;
      }

      .cls-2 {
        fill: #fff;
      }
    </style>
  </defs>
  <g id="LoginScreen">
    <g>
      <path class="cls-1" d="M130.6,47.47v35.36h-46.67v14.1c-1.15-6.04-2.91-10.47-4.98-14.17l26.92-18.15c.8.9,1.8,1.56,2.99,1.95,2.07.7,4.21.31,5.9-.82-.73-1.91-2.26-3.5-4.33-4.17-.42-.16-.88-.23-1.3-.27h-.04c.46-.58.84-1.25,1.15-1.99.77-2.06.54-4.24-.46-6.07-1.91.66-3.56,2.14-4.36,4.21-.46,1.21-.57,2.45-.38,3.66l-31.74,13.36c-1.15-1.52-2.3-3.04-3.41-4.67-2.3-3.39-3.79-7.16-4.75-11.14,1.91.35,3.94,0,5.67-1.17,2.03-1.36,3.18-3.54,3.41-5.8-2.14-.66-4.56-.39-6.59.97-1.42.97-2.37,2.34-2.91,3.82-2.72-15.11,2.3-31.97,4.29-37.77,1.42-.04,2.83-.43,4.1-1.28,2.03-1.4,3.18-3.54,3.41-5.84-2.14-.62-4.56-.35-6.59,1.01-1.19.78-2.03,1.87-2.6,3.08-.19-.51-.42-.97-.73-1.44-1.38-2.06-3.48-3.23-5.74-3.47-.61,2.18-.34,4.63,1,6.7.84,1.29,2.03,2.18,3.33,2.76-3.06,6.66-4.86,13.4-5.82,19.74-.11-1.29-.5-2.53-1.23-3.7-1.38-2.06-3.48-3.23-5.74-3.47-.61,2.18-.38,4.63,1,6.7,1.3,2.02,3.37,3.15,5.59,3.43-1.99,16.98,1.61,30.45,1.61,30.45l-29.56-8.18c1.03-1.32,1.65-3,1.65-4.79,0-2.49-1.15-4.67-2.87-6.15-1.72,1.48-2.83,3.66-2.83,6.15,0,1.64.54,3.15,1.38,4.4-1.53,0-3.06.35-4.4,1.29-2.03,1.4-3.18,3.54-3.41,5.84,2.14.62,4.56.35,6.59-1.01,1.46-1.01,2.49-2.45,2.99-4.01l33.54,15.07c6.16,27.92-7.2,42.99-13.97,48.64h-3.64v-47.78H0v-35.36h46.02V0h37.91v47.47h46.67Z"/>
      <g>
        <path class="cls-2" d="M156.28,72.76h-10.14v10.55h-6.76v-35.83c5.63,0,11.26-.05,16.89-.05,17.51,0,17.56,25.34,0,25.34ZM146.14,66.57h10.14c8.65,0,8.6-12.69,0-12.69h-10.14v12.69Z"/>
        <path class="cls-2" d="M180.32,72.92c.41,3.12,3.12,5.38,7.52,5.38,2.3,0,5.32-.87,6.76-2.36l3.99,3.94c-2.66,2.76-7.01,4.1-10.85,4.1-8.7,0-13.87-5.37-13.87-13.46s5.22-13.21,13.41-13.21,13.72,5.22,12.75,15.61h-19.71ZM194.04,67.75c-.41-3.28-2.97-4.91-6.55-4.91-3.38,0-6.14,1.64-7.06,4.91h13.62Z"/>
        <path class="cls-2" d="M213.17,58.07l.46,2.92c1.95-3.12,4.56-3.58,7.12-3.58s5.12,1.02,6.5,2.41l-2.82,5.43c-1.28-1.07-2.46-1.64-4.5-1.64-3.28,0-6.3,1.74-6.3,6.4v13.31h-6.24v-25.24h5.78Z"/>
        <path class="cls-2" d="M248.63,64.78c-1.79-1.69-3.84-2.25-6.25-2.25-2.97,0-4.61.92-4.61,2.51s1.48,2.56,4.71,2.76c4.76.31,10.8,1.38,10.8,8.09,0,4.45-3.63,8.29-10.85,8.29-3.99,0-7.99-.67-11.67-4.51l3.07-4.45c1.79,2,5.89,3.48,8.7,3.53,2.36.05,4.56-1.18,4.56-3.02,0-1.74-1.43-2.46-5.02-2.66-4.76-.36-10.44-2.1-10.44-7.83s6.04-7.88,10.65-7.88c3.94,0,6.91.77,9.83,3.33l-3.48,4.1Z"/>
        <path class="cls-2" d="M284.9,70.71c0,7.27-4.96,13.16-13.15,13.16s-13.1-5.89-13.1-13.16,5.02-13.16,13.05-13.16,13.21,5.94,13.21,13.16ZM264.89,70.71c0,3.84,2.3,7.42,6.86,7.42s6.86-3.58,6.86-7.42-2.66-7.47-6.86-7.47c-4.51,0-6.86,3.68-6.86,7.47Z"/>
        <path class="cls-2" d="M310.33,83.31v-13.21c0-3.84-2.1-6.76-6.09-6.76s-6.45,3.22-6.45,7.06v12.9h-6.2v-25.29h5.58l.41,3.43c2.56-2.51,5.12-3.79,8.29-3.79,5.94,0,10.7,4.45,10.7,12.39v13.26h-6.25Z"/>
        <path class="cls-2" d="M344.5,58.07h5.99v25.24h-5.89l-.31-3.68c-1.43,2.97-5.38,4.4-8.19,4.45-7.47.05-13-4.56-13-13.41s5.78-13.26,13.16-13.21c3.38,0,6.6,1.59,8.04,4.1l.2-3.48ZM329.35,70.66c0,4.81,3.33,7.68,7.47,7.68,9.83,0,9.83-15.3,0-15.3-4.15,0-7.47,2.82-7.47,7.63Z"/>
        <path class="cls-2" d="M364.5,47.53v35.78h-6.2v-35.78h6.2Z"/>
        <path class="cls-2" d="M156.28,120.27h-10.14v10.55h-6.76v-35.83c5.63,0,11.26-.05,16.89-.05,17.51,0,17.56,25.34,0,25.34ZM146.14,114.08h10.14c8.65,0,8.6-12.69,0-12.69h-10.14v12.69Z"/>
        <path class="cls-2" d="M182.27,95.03v35.78h-6.2v-35.78h6.2Z"/>
        <path class="cls-2" d="M196.69,105.58v13.21c0,3.84,2.1,6.76,6.09,6.76s6.45-3.22,6.45-7.06v-12.9h6.19v25.29h-5.58l-.41-3.43c-2.61,2.56-5.02,3.79-8.55,3.79-6.04,0-10.44-4.56-10.44-12.39v-13.26h6.24Z"/>
        <path class="cls-2" d="M239.98,112.28c-1.79-1.69-3.84-2.25-6.25-2.25-2.97,0-4.61.92-4.61,2.51s1.48,2.56,4.71,2.76c4.76.31,10.8,1.38,10.8,8.09,0,4.45-3.63,8.29-10.85,8.29-3.99,0-7.99-.67-11.67-4.51l3.07-4.45c1.79,2,5.89,3.48,8.7,3.53,2.36.05,4.56-1.18,4.56-3.02,0-1.74-1.43-2.46-5.02-2.66-4.76-.36-10.44-2.1-10.44-7.83s6.04-7.88,10.65-7.88c3.94,0,6.91.77,9.83,3.33l-3.48,4.1Z"/>
      </g>
    </g>
  </g>
</svg>