<?xml version="1.0" encoding="UTF-8"?>
<svg id="Layer_2" data-name="Layer 2" xmlns="http://www.w3.org/2000/svg" viewBox="0 0 30 19">
  <defs>
    <style>
      .cls-1 {
        fill: #b4b4b4;
      }
    </style>
  </defs>
  <g id="Create_Account" data-name="Create Account">
    <g>
      <g>
        <path class="cls-1" d="M13.79,7.92c-.05-.13-.07-.27-.07-.42,0-.72.59-1.3,1.32-1.3.15,0,.29.02.43.07l.42-.41c-.27-.06-.55-.09-.84-.09-2.08,0-3.76,1.65-3.76,3.69,0,.28.03.56.09.83l2.42-2.37Z"/>
        <path class="cls-1" d="M13.65,12.89c.43.17.9.26,1.39.26,2.08,0,3.76-1.65,3.76-3.69,0-.48-.09-.95-.27-1.37l-4.89,4.8Z"/>
      </g>
      <path class="cls-1" d="M10.17,11.47c-.26-.62-.41-1.3-.41-2.01,0-2.86,2.36-5.19,5.28-5.19.73,0,1.42.14,2.05.4l2.17-2.13c-1.33-.37-2.74-.6-4.22-.6C6.52,1.95,0,9.46,0,9.46c0,0,2.65,3.1,6.81,5.31l3.36-3.3Z"/>
      <path class="cls-1" d="M22.77,3.93l-3.1,3.04c.41.74.65,1.59.65,2.49,0,2.86-2.36,5.19-5.28,5.19-.92,0-1.78-.23-2.53-.64l-2.26,2.22c1.47.46,3.05.74,4.71.74,8.52,0,15.04-7.51,15.04-7.51,0,0-2.83-3.31-7.23-5.53Z"/>
      <path class="cls-1" d="M6.03,19c-.27,0-.54-.1-.75-.3-.41-.41-.41-1.07,0-1.47L22.51.3c.41-.41,1.09-.41,1.5,0,.41.41.41,1.07,0,1.47L6.78,18.7c-.21.2-.48.3-.75.3Z"/>
    </g>
  </g>
</svg>