<?xml version="1.0" encoding="UTF-8"?>
<svg id="Layer_2" data-name="Layer 2" xmlns="http://www.w3.org/2000/svg" viewBox="0 0 30 15.3">
  <defs>
    <style>
      .cls-1 {
        fill: #b4b4b4;
      }
    </style>
  </defs>
  <g id="Create_Account" data-name="Create Account">
    <g>
      <path class="cls-1" d="M15.04,0C6.52,0,0,7.65,0,7.65c0,0,6.44,7.65,14.96,7.65s15.04-7.65,15.04-7.65c0,0-6.44-7.65-14.96-7.65ZM15.04,12.93c-2.92,0-5.28-2.36-5.28-5.28s2.36-5.28,5.28-5.28,5.28,2.36,5.28,5.28-2.36,5.28-5.28,5.28Z"/>
      <path class="cls-1" d="M15.04,3.89c-2.08,0-3.76,1.68-3.76,3.76s1.68,3.76,3.76,3.76,3.76-1.68,3.76-3.76-1.68-3.76-3.76-3.76ZM15.04,6.97c-.73,0-1.32-.59-1.32-1.32s.59-1.32,1.32-1.32,1.32.59,1.32,1.32-.59,1.32-1.32,1.32Z"/>
    </g>
  </g>
</svg>