<?xml version="1.0" encoding="UTF-8"?>
<svg id="Layer_2" data-name="Layer 2" xmlns="http://www.w3.org/2000/svg" viewBox="0 0 118 118">
  <defs>
    <style>
      .cls-1 {
        fill: #28a0ae;
      }

      .cls-2 {
        fill: #101b27;
      }

      .cls-3 {
        fill: #f5f5f5;
      }
    </style>
  </defs>
  <g id="Layer_1-2" data-name="Layer 1">
    <g>
      <rect class="cls-2" width="118" height="118"/>
      <g>
        <path class="cls-1" d="M47.97,51.4c-1.27-2.1-4.89-3.72-8.27-3.72-4.06,0-7.78,1.17-7.78,4.6,0,3.23,3.86,3.81,7.97,4.3,7.14.88,14.77,2.15,14.77,10.76,0,6.6-5.53,10.32-11.59,10.76v4.89h-6.21v-4.65c-5.48-.49-10.57-2.98-12.86-8.36l5.77-2.45c1.32,3.13,5.67,5.14,9.73,5.14,4.4,0,8.46-1.52,8.46-5.33,0-3.23-4.06-4.4-8.61-4.94-6.99-.78-13.84-2-13.84-10.12,0-6.41,5.67-9.34,11.35-10.03v-4.26h6.21v4.26c4.16.64,7.97,2.2,10.17,6.7l-5.28,2.44Z"/>
        <rect class="cls-3" x="48" y="35" width="35" height="6" rx="3" ry="3"/>
        <rect class="cls-3" x="60" y="49" width="23" height="6" rx="3" ry="3"/>
        <rect class="cls-3" x="60" y="63" width="23" height="6" rx="3" ry="3"/>
        <rect class="cls-3" x="53" y="77" width="30" height="6" rx="3" ry="3"/>
        <path class="cls-3" d="M86.5,24h-42.14c-4.14,0-7.5,3.36-7.5,7.5v6.5h6.21v-3c0-2.76,2.24-5,5-5h34.93c2.76,0,5,2.24,5,5v48c0,2.76-2.24,5-5,5h-34.93c-2.76,0-5-2.24-5-5h-6.21v3.5c0,4.14,3.36,7.5,7.5,7.5h42.14c4.14,0,7.5-3.36,7.5-7.5V31.5c0-4.14-3.36-7.5-7.5-7.5Z"/>
      </g>
    </g>
  </g>
</svg>