<?xml version="1.0" encoding="UTF-8"?>
<svg id="Layer_2" data-name="Layer 2" xmlns="http://www.w3.org/2000/svg" viewBox="0 0 118 118">
  <defs>
    <style>
      .cls-1 {
        fill: #28a0ae;
      }

      .cls-2 {
        fill: #101b27;
      }

      .cls-3 {
        fill: #f5f5f5;
      }
    </style>
  </defs>
  <g id="AppIcon_Selected_Fitness" data-name="AppIcon Selected_Fitness">
    <rect class="cls-2" width="118" height="118"/>
    <g>
      <rect class="cls-3" x="32.7" y="23.47" width="6.15" height="24.59" rx="2.97" ry="2.97" transform="translate(35.77 -14.82) rotate(45)"/>
      <rect class="cls-3" x="39.22" y="17.7" width="6.15" height="49.19" rx="2.97" ry="2.97" transform="translate(42.29 -17.52) rotate(45)"/>
      <rect class="cls-3" x="45.74" y="24.22" width="6.15" height="49.19" rx="2.97" ry="2.97" transform="translate(48.81 -20.22) rotate(45)"/>
      <rect class="cls-1" x="53.83" y="47.68" width="10.25" height="22.54" transform="translate(-24.42 58.96) rotate(-45)"/>
      <rect class="cls-3" x="66.03" y="44.51" width="6.15" height="49.19" rx="2.97" ry="2.97" transform="translate(69.1 -28.62) rotate(45)"/>
      <rect class="cls-3" x="72.55" y="51.03" width="6.15" height="49.19" rx="2.97" ry="2.97" transform="translate(75.62 -31.33) rotate(45)"/>
      <rect class="cls-3" x="79.07" y="69.85" width="6.15" height="24.59" rx="2.97" ry="2.97" transform="translate(82.14 -34.03) rotate(45)"/>
    </g>
  </g>
</svg>