<?xml version="1.0" encoding="UTF-8"?>
<svg id="Layer_2" data-name="Layer 2" xmlns="http://www.w3.org/2000/svg" viewBox="0 0 118 118">
  <defs>
    <style>
      .cls-1 {
        fill: #28a0ae;
      }

      .cls-2 {
        fill: #1f3548;
      }

      .cls-3 {
        fill: #f5f5f5;
      }
    </style>
  </defs>
  <g id="Layer_1-2" data-name="Layer 1">
    <g>
      <rect class="cls-2" width="118" height="118"/>
      <g>
        <path class="cls-3" d="M81.32,53.28c-.88-.88-2.3-.88-3.18,0l-6.67,6.67-2.86-2.86c-.88-.88-2.3-.88-3.18,0s-.88,2.3,0,3.18l4.45,4.45c.88.88,2.3.88,3.18,0l8.26-8.26c.88-.88.88-2.3,0-3.18Z"/>
        <rect class="cls-3" x="36.02" y="56.44" width="21.57" height="4.49" rx="2.25" ry="2.25"/>
        <path class="cls-1" d="M81.32,36.66c-.88-.88-2.3-.88-3.18,0l-6.67,6.67-2.86-2.86c-.88-.88-2.3-.88-3.18,0s-.88,2.3,0,3.18l4.45,4.45c.88.88,2.3.88,3.18,0l8.26-8.26c.88-.88.88-2.3,0-3.18Z"/>
        <rect class="cls-1" x="36.02" y="39.82" width="21.57" height="4.49" rx="2.25" ry="2.25"/>
        <path class="cls-3" d="M81.32,69.91c-.88-.88-2.3-.88-3.18,0l-6.67,6.67-2.86-2.86c-.88-.88-2.3-.88-3.18,0s-.88,2.3,0,3.18l4.45,4.45c.88.88,2.3.88,3.18,0l8.26-8.26c.88-.88.88-2.3,0-3.18Z"/>
        <rect class="cls-3" x="36.02" y="73.07" width="21.57" height="4.49" rx="2.25" ry="2.25"/>
        <path class="cls-3" d="M86.5,24H31.5c-4.14,0-7.5,3.36-7.5,7.5v55c0,4.14,3.36,7.5,7.5,7.5h55c4.14,0,7.5-3.36,7.5-7.5V31.5c0-4.14-3.36-7.5-7.5-7.5ZM88,83c0,2.76-2.24,5-5,5h-48c-2.76,0-5-2.24-5-5v-48c0-2.76,2.24-5,5-5h48c2.76,0,5,2.24,5,5v48Z"/>
      </g>
    </g>
  </g>
</svg>