<?xml version="1.0" encoding="UTF-8"?>
<svg id="Layer_2" data-name="Layer 2" xmlns="http://www.w3.org/2000/svg" viewBox="0 0 20 20">
  <defs>
    <style>
      .cls-1 {
        fill: #4b4b4b;
      }
    </style>
  </defs>
  <g id="ICONS">
    <g>
      <path class="cls-1" d="M19.26,11.62c-.46-.39-.74-.97-.74-1.62s.29-1.23.74-1.62c.7-.6.93-1.59.58-2.44,0-.01-.01-.03-.02-.04-.35-.85-1.22-1.38-2.13-1.31-.6.05-1.21-.16-1.67-.62-.46-.46-.66-1.07-.62-1.67.07-.91-.46-1.78-1.31-2.13-.01,0-.03-.01-.04-.02-.85-.35-1.84-.12-2.44.58-.39.46-.97.74-1.62.74s-1.23-.29-1.62-.74C7.78.04,6.79-.19,5.94.16c-.01,0-.03.01-.04.02-.85.35-1.38,1.22-1.31,2.13.05.6-.16,1.21-.62,1.67-.46.46-1.07.66-1.67.62-.91-.07-1.78.46-2.13,1.31,0,.01-.01.03-.02.04-.35.85-.12,1.84.58,2.44.46.39.74.97.74,1.62s-.29,1.23-.74,1.62c-.7.6-.93,1.59-.58,2.44,0,.01.01.03.02.04.35.85,1.22,1.38,2.13,1.31.6-.05,1.21.16,1.67.62s.66,1.07.62,1.67c-.07.91.46,1.78,1.31,2.13.01,0,.03.01.04.02.85.35,1.84.12,2.44-.58.39-.46.97-.74,1.62-.74s1.23.29,1.62.74c.6.7,1.59.93,2.44.58.01,0,.03-.01.04-.02.85-.35,1.38-1.22,1.31-2.13-.05-.6.16-1.21.62-1.67.46-.46,1.07-.66,1.67-.62.91.07,1.78-.46,2.13-1.31,0-.01.01-.03.02-.04.35-.85.12-1.84-.58-2.44ZM10,16.38c-3.52,0-6.38-2.86-6.38-6.38s2.86-6.38,6.38-6.38,6.38,2.86,6.38,6.38-2.86,6.38-6.38,6.38Z"/>
      <path class="cls-1" d="M10,5.03c-2.74,0-4.97,2.23-4.97,4.97s2.23,4.97,4.97,4.97,4.97-2.23,4.97-4.97-2.23-4.97-4.97-4.97ZM10,14.26c-2.35,0-4.26-1.91-4.26-4.26s1.91-4.26,4.26-4.26,4.26,1.91,4.26,4.26-1.91,4.26-4.26,4.26Z"/>
    </g>
  </g>
</svg>