<?xml version="1.0" encoding="UTF-8"?>
<svg id="Layer_2" data-name="Layer 2" xmlns="http://www.w3.org/2000/svg" viewBox="0 0 15.31 9.66">
  <defs>
    <style>
      .cls-1 {
        fill: #f0f0f0;
      }

      .cls-2 {
        fill: #f5f5f5;
      }
    </style>
  </defs>
  <g id="Layer_1-2" data-name="Layer 1">
    <g>
      <path class="cls-1" d="M7.66,9.16c-.4,0-.78-.16-1.06-.44L.94,3.06C.35,2.48.35,1.52.94.94c.28-.28.66-.44,1.06-.44s.78.16,1.06.44l4.6,4.6L12.25.94c.28-.28.66-.44,1.06-.44s.78.16,1.06.44c.58.58.58,1.54,0,2.12l-5.66,5.66c-.28.28-.66.44-1.06.44Z"/>
      <path class="cls-2" d="M2,1c.27,0,.52.1.71.29l4.24,4.24.71.71.71-.71L12.61,1.29c.19-.19.44-.29.71-.29.27,0,.52.1.71.29.39.39.39,1.02,0,1.41l-5.66,5.66c-.19.19-.44.29-.71.29s-.52-.1-.71-.29L1.29,2.71c-.39-.39-.39-1.02,0-1.41.19-.19.44-.29.71-.29M13.31,0c-.51,0-1.02.2-1.41.59l-4.24,4.24L3.41.59C3.02.2,2.51,0,2,0S.98.2.59.59C-.2,1.37-.2,2.63.59,3.41l5.66,5.66c.39.39.9.59,1.41.59s1.02-.2,1.41-.59l5.66-5.66c.78-.78.78-2.05,0-2.83C14.34.2,13.83,0,13.31,0h0Z"/>
    </g>
  </g>
</svg>