<?xml version="1.0" encoding="UTF-8"?>
<svg id="Layer_2" data-name="Layer 2" xmlns="http://www.w3.org/2000/svg" viewBox="0 0 66 66">
  <defs>
    <style>
      .cls-1 {
        fill: #28a0ae;
      }

      .cls-2 {
        fill: #f5f5f5;
      }
    </style>
  </defs>
  <g id="Layer_1-2" data-name="Layer 1">
    <g>
      <rect class="cls-1" width="66" height="66" rx="5.45" ry="5.45"/>
      <path class="cls-2" d="M48.69,30.2l-.1-.1h0l-12.73-12.73c-1.08-1.08-2.83-1.08-3.9,0s-1.08,2.83,0,3.9l8.01,8.01h-23.31c-1.52,0-2.76,1.24-2.76,2.76h0c0,1.52,1.24,2.76,2.76,2.76h23.71l-8.41,8.41c-1.08,1.08-1.08,2.83,0,3.9s2.83,1.08,3.9,0l12.83-12.83c.56-.56.82-1.31.8-2.05.02-.74-.24-1.48-.8-2.05Z"/>
    </g>
  </g>
</svg>