<?xml version="1.0" encoding="UTF-8"?>
<svg id="Layer_2" data-name="Layer 2" xmlns="http://www.w3.org/2000/svg" viewBox="0 0 165 66">
  <defs>
    <style>
      .cls-1 {
        fill: #28a0ae;
      }

      .cls-2 {
        fill: #f5f5f5;
      }
    </style>
  </defs>
  <g id="Layer_1-2" data-name="Layer 1">
    <g>
      <rect class="cls-1" width="165" height="66" rx="5.45" ry="5.45"/>
      <g>
        <path class="cls-2" d="M55.32,24.56l-2.06,1.81c-.39-.41-.9-.71-1.52-.92-.62-.21-1.25-.31-1.88-.31-.74,0-1.37.15-1.87.44-.5.29-.76.69-.76,1.18,0,.62.25,1.04.77,1.27s1.31.4,2.4.49c3.77.32,5.65,1.91,5.65,4.77,0,1.04-.3,1.92-.9,2.66-.6.73-1.36,1.26-2.27,1.57-.91.32-1.92.48-3.02.49-1.34.01-2.6-.24-3.78-.76-1.18-.52-2.06-1.27-2.65-2.27l1.95-2.04c.53.69,1.21,1.2,2.04,1.55.83.35,1.64.52,2.46.52.87,0,1.57-.16,2.12-.48.55-.32.82-.74.82-1.26.01-.6-.22-1.06-.7-1.38s-1.24-.51-2.26-.6c-.88-.08-1.63-.2-2.26-.36-.62-.15-1.23-.39-1.82-.71-.59-.32-1.03-.77-1.33-1.35-.3-.58-.44-1.28-.43-2.11.01-1.4.58-2.5,1.71-3.29,1.13-.79,2.5-1.19,4.11-1.19,1.2,0,2.24.17,3.1.5.86.34,1.66.92,2.38,1.76Z"/>
        <path class="cls-2" d="M58.16,25.65c-.36-.31-.54-.73-.54-1.26s.18-.95.54-1.26.75-.46,1.19-.46.83.15,1.19.46.54.73.54,1.26-.18.95-.54,1.26c-.36.31-.75.46-1.19.46s-.83-.15-1.19-.46ZM60.86,27.12h-3.02v10.4h3.02v-10.4Z"/>
        <path class="cls-2" d="M62.98,38.94h2.81c.1,1.4.97,2.1,2.6,2.1.71,0,1.32-.16,1.82-.49.5-.33.75-.8.75-1.42,0-1.19-.84-1.79-2.52-1.79s-3.07-.47-4.08-1.42-1.52-2.22-1.52-3.81c0-1.68.55-2.98,1.64-3.91,1.09-.92,2.42-1.39,3.97-1.39,1.08,0,1.89.19,2.44.57l1.13-1.47,2.18,1.68-1.32,1.58c.76.91,1.11,1.9,1.07,2.98-.04,1.68-.78,2.89-2.23,3.63,1.54.69,2.31,1.8,2.31,3.34,0,1.46-.55,2.58-1.66,3.38s-2.43,1.2-3.97,1.2c-1.78,0-3.13-.42-4.06-1.25s-1.38-2.01-1.35-3.52ZM68.44,29.51c-.8,0-1.45.23-1.94.69s-.75,1.1-.75,1.91c0,.74.26,1.34.77,1.8.51.46,1.15.68,1.92.68.73,0,1.34-.22,1.85-.65s.76-1.04.76-1.83c0-.73-.25-1.34-.75-1.85-.5-.5-1.12-.76-1.86-.76Z"/>
        <path class="cls-2" d="M86.67,37.52h-3.04v-5.48c0-1.61-.71-2.42-2.14-2.42-.69-.01-1.25.23-1.69.73-.44.5-.66,1.11-.66,1.81v5.35h-2.98v-10.37h2.73l.1,1.32c.83-1.08,1.95-1.6,3.36-1.58,2.88,0,4.33,1.71,4.33,5.12v5.5Z"/>
        <path class="cls-2" d="M104.35,22.84h3.26v8.21c0,2.14-.56,3.8-1.67,4.97-1.11,1.17-2.66,1.79-4.63,1.86-2.04.07-3.74-.48-5.08-1.66-1.34-1.18-2.02-2.9-2.02-5.17v-8.21h3.25v8.21c0,1.3.34,2.29,1.03,2.96.69.67,1.63.98,2.83.92,2.02-.14,3.02-1.44,3.02-3.88v-8.21Z"/>
        <path class="cls-2" d="M113.15,42.09h-3.05v-14.93h2.71l.19,1.32c.78-1.01,1.93-1.51,3.44-1.51s2.76.49,3.71,1.48c.94.99,1.42,2.29,1.42,3.9s-.48,2.96-1.43,3.94c-.95.97-2.2,1.46-3.74,1.46-1.37,0-2.46-.49-3.25-1.47v5.82ZM115.98,35.02c.77,0,1.39-.25,1.85-.75.46-.5.69-1.14.69-1.92s-.23-1.41-.68-1.91c-.46-.5-1.07-.76-1.86-.76s-1.43.22-1.97.65c-.55.43-.82,1.11-.82,2.02,0,.83.28,1.48.84,1.95.56.48,1.21.71,1.95.71Z"/>
      </g>
    </g>
  </g>
</svg>