<?xml version="1.0" encoding="UTF-8"?>
<svg id="Layer_2" data-name="Layer 2" xmlns="http://www.w3.org/2000/svg" viewBox="0 0 24 24">
  <defs>
    <style>
      .cls-1 {
        fill: #f0f0f0;
      }

      .cls-2 {
        fill: #969696;
      }
    </style>
  </defs>
  <g id="LoginScreen">
    <g>
      <rect class="cls-1" x=".5" y=".5" width="23" height="23" rx="2.92" ry="2.92"/>
      <path class="cls-2" d="M20.58,1c1.33,0,2.42,1.08,2.42,2.42v17.17c0,1.33-1.08,2.42-2.42,2.42H3.42c-1.33,0-2.42-1.08-2.42-2.42V3.42c0-1.33,1.08-2.42,2.42-2.42h17.17M20.58,0H3.42C1.53,0,0,1.53,0,3.42v17.17c0,1.89,1.53,3.42,3.42,3.42h17.17c1.89,0,3.42-1.53,3.42-3.42V3.42c0-1.89-1.53-3.42-3.42-3.42h0Z"/>
    </g>
  </g>
</svg>