<?xml version="1.0" encoding="UTF-8"?>
<svg id="Layer_2" data-name="Layer 2" xmlns="http://www.w3.org/2000/svg" viewBox="0 0 15.31 9.66">
  <defs>
    <style>
      .cls-1 {
        fill: #f0f0f0;
      }

      .cls-2 {
        fill: #f5f5f5;
      }
    </style>
  </defs>
  <g id="Layer_1-2" data-name="Layer 1">
    <g>
      <path class="cls-1" d="M13.31,9.16c-.4,0-.78-.16-1.06-.44l-4.6-4.6-4.6,4.6c-.28.28-.66.44-1.06.44s-.78-.16-1.06-.44c-.58-.58-.58-1.54,0-2.12L6.6.94c.28-.28.66-.44,1.06-.44s.78.16,1.06.44l5.66,5.66c.58.58.58,1.54,0,2.12-.28.28-.66.44-1.06.44h0Z"/>
      <path class="cls-2" d="M7.66,1c.27,0,.52.1.71.29l5.66,5.66c.19.19.29.44.29.71s-.1.52-.29.71c-.19.19-.44.29-.71.29s-.52-.1-.71-.29l-4.24-4.24-.71-.71-.71.71-4.24,4.24c-.19.19-.44.29-.71.29s-.52-.1-.71-.29-.29-.44-.29-.71.1-.52.29-.71L6.95,1.29c.19-.19.44-.29.71-.29M7.66,0c-.51,0-1.02.2-1.41.59L.59,6.24c-.78.78-.78,2.05,0,2.83.39.39.9.59,1.41.59s1.02-.2,1.41-.59l4.24-4.24,4.24,4.24c.39.39.9.59,1.41.59s1.02-.2,1.41-.59c.78-.78.78-2.05,0-2.83L9.07.59c-.39-.39-.9-.59-1.41-.59h0Z"/>
    </g>
  </g>
</svg>